<?xml version="1.0" standalone="no"?>
<!DOCTYPE svg PUBLIC "-//W3C//DTD SVG 20010904//EN"
 "http://www.w3.org/TR/2001/REC-SVG-20010904/DTD/svg10.dtd">
<svg version="1.0" xmlns="http://www.w3.org/2000/svg"
 width="700.000000pt" height="700.000000pt" viewBox="0 0 700.000000 700.000000"
 preserveAspectRatio="xMidYMid meet">
<metadata>
Created by potrace 1.14, written by Peter Selinger 2001-2017
</metadata>
<g transform="translate(0.000000,700.000000) scale(0.100000,-0.100000)"
fill="#000000" stroke="none">
<path d="M5907 5624 c-1 -1 -45 -5 -97 -8 -104 -8 -113 -8 -315 -31 -119 -14
-406 -57 -565 -85 -63 -11 -483 -105 -610 -136 -350 -86 -720 -203 -1060 -335
-76 -30 -92 -36 -145 -60 -16 -7 -32 -13 -35 -14 -3 -1 -21 -8 -40 -17 -320
-141 -629 -306 -890 -476 -98 -64 -325 -226 -355 -253 -5 -5 31 5 80 21 187
64 335 98 456 104 90 5 97 -5 26 -41 -272 -142 -684 -605 -987 -1108 -69 -115
-150 -274 -150 -294 0 -11 12 -5 120 58 123 72 385 189 396 178 3 -3 -6 -30
-20 -61 -41 -90 -93 -246 -125 -378 -33 -135 -34 -141 -51 -255 -6 -43 -13
-89 -16 -103 -27 -161 -26 -798 2 -998 5 -35 -2 -54 -50 -144 -31 -58 -56
-114 -56 -126 0 -51 80 -83 111 -44 8 9 28 42 44 72 62 120 354 616 382 649 2
3 27 -3 56 -12 142 -44 374 -53 597 -23 200 28 421 85 490 128 11 7 20 19 20
26 0 29 -73 39 -330 47 -223 7 -322 15 -440 36 -69 13 -210 58 -210 68 0 4 6
15 12 24 12 14 56 17 403 21 408 5 448 7 635 32 242 32 433 91 501 155 35 33
292 350 287 354 -7 7 -98 44 -98 40 0 -3 -12 0 -27 6 -14 5 -169 46 -344 90
-510 128 -585 155 -404 144 55 -3 114 -7 130 -9 17 -3 64 -7 105 -11 41 -3 88
-8 105 -11 16 -3 52 -7 79 -9 26 -3 85 -9 130 -14 44 -6 112 -13 151 -17 38
-3 78 -8 90 -10 11 -2 72 -7 135 -10 l115 -7 50 59 c27 33 55 64 61 69 55 51
194 216 190 224 -8 12 -152 81 -170 81 -7 0 -16 4 -21 9 -6 5 -48 23 -95 41
-96 36 -208 88 -215 100 -12 20 96 22 275 5 30 -3 82 -8 115 -10 33 -3 87 -8
120 -11 33 -3 93 -6 134 -6 l74 0 124 128 c69 71 223 228 342 349 510 520 650
688 736 884 141 320 224 720 186 896 -6 30 -7 30 -74 30 -38 0 -69 -1 -70 -1z"/>
</g>
</svg>
